<svg width="150" height="52" viewBox="0 0 150 52" fill="none" xmlns="http://www.w3.org/2000/svg">
<path fill-rule="evenodd" clip-rule="evenodd" d="M0.0206299 49.6635C0.0206299 49.3662 0.20607 49.1244 0.439586 49.1244H40.8792C41.1127 49.1244 41.2981 49.3662 41.2981 49.6635C41.2981 49.9606 41.1127 50.2025 40.8792 50.2025H0.439586C0.20607 50.2025 0.0206299 49.9606 0.0206299 49.6635Z" fill="#FFCC29"/>
<path fill-rule="evenodd" clip-rule="evenodd" d="M108.702 49.6635C108.702 49.3662 108.887 49.1244 109.121 49.1244H149.56C149.794 49.1244 149.98 49.3662 149.98 49.6635C149.98 49.9606 149.794 50.2025 149.56 50.2025H109.121C108.887 50.2025 108.702 49.9606 108.702 49.6635Z" fill="#FFCC29"/>
<path d="M63.1458 24.7695V36.5945C63.1458 38.7369 63.393 39.7667 64.8006 40.4855H52.809C54.217 39.7736 54.4643 38.7439 54.4643 36.5945L54.4231 23.7052C54.4094 19.1093 49.739 21.8254 49.739 25.274V36.5945C49.739 38.7369 49.9863 39.7667 51.3942 40.4855H39.4025C40.8104 39.7736 41.0577 38.7439 41.0577 36.5945L41.0165 23.7052C41.0027 18.7776 36.0508 22.2332 36.0508 25.8892V36.6014C36.0508 38.7439 36.2981 39.7736 37.706 40.4923H25.9135C27.3214 39.7805 27.5687 38.7507 27.5687 36.6014V22.8828C27.5687 20.7611 27.3214 19.7313 25.9547 19.0195H35.8723V22.3368C37.5755 17.0083 46.9094 17.347 49.217 22.3437C52.548 15.6399 63.1458 18.2661 63.1458 24.7695Z" fill="#39373A"/>
<path d="M93.6883 20.6989H91.2433C95.4397 17.9137 99.1345 14.4305 102.17 10.4151V19.0195H108.496C107.726 19.6069 106.943 20.1667 106.14 20.6989H102.177V31.2038C102.177 36.1315 102.651 38.654 108.194 37.175L108.208 37.2026C106.566 40.1606 101.792 41.2249 98.2009 39.9326C95.6047 38.9995 93.6949 36.2697 93.6949 32.745L93.6883 20.6989Z" fill="#39373A"/>
<path d="M110.783 20.6989H108.338C112.534 17.9137 116.23 14.4305 119.265 10.4151V19.0195H125.597C124.828 19.6069 124.045 20.1667 123.235 20.6989H119.258V31.2038C119.258 36.1315 119.739 38.661 125.288 37.1751L125.302 37.1958C123.661 40.1606 118.888 41.225 115.288 39.9395C112.693 39.0065 110.783 36.2766 110.783 32.7519V20.6989Z" fill="#39373A"/>
<path d="M12.3833 35.6407L12.3901 28.6466C11.5522 29.7801 10.3846 30.5403 9.07281 31.3005C6.14013 33.0076 7.73355 37.479 10.0824 37.479C11.2088 37.479 12.3833 36.5391 12.3833 35.6407ZM23.9767 37.1127C21.7652 41.6327 13.8118 41.7225 12.9052 36.8363C11.5316 40.3472 6.51789 41.2525 3.23492 39.8289C-1.35986 37.8453 -0.892825 30.8029 3.79124 29.6833C6.35307 29.0682 9.80775 29.4552 11.9025 27.4717C12.1841 27.2022 12.3833 26.8774 12.3833 26.3452V23.6775C12.3833 20.1874 9.37503 19.835 8.17311 20.9062C7.52751 21.4798 7.47945 22.6201 8.11815 23.173C10.3297 25.0805 9.24453 27.4717 7.06731 28.2527C4.27888 29.2548 2.02613 27.914 1.34618 25.7301C0.810467 24.0093 1.19509 21.6664 3.53712 20.1943C5.82421 18.7637 9.14841 18.4389 11.3118 18.4389C15.0206 18.4389 20.9066 20.0423 20.9066 24.6728V34.8459C20.9066 38.0043 22.8022 37.7071 23.9767 37.1127Z" fill="#39373A"/>
<path d="M138.18 20.2358C134.038 20.2428 133.366 38.73 138.18 38.73C142.994 38.7231 142.328 20.2428 138.18 20.2358ZM138.18 40.4233C122.239 40.4233 122.665 18.4942 138.18 18.4942C153.695 18.4942 154.128 40.4233 138.18 40.4233Z" fill="#39373A"/>
<path d="M79.2516 35.6407L79.2582 28.6466C78.4206 29.7801 77.253 30.5403 75.9408 31.3005C73.008 33.0076 74.6016 37.479 76.9506 37.479C78.0768 37.479 79.2516 36.5391 79.2516 35.6407ZM90.8514 37.1127C88.6404 41.6327 80.6934 41.7225 79.7802 36.8363C78.4068 40.3472 73.3926 41.2525 70.1028 39.8289C65.508 37.8453 65.9754 30.8029 70.6596 29.6833C73.221 29.0682 76.6758 29.4552 78.7704 27.4717C79.0524 27.2022 79.2516 26.8774 79.2516 26.3452V23.6775C79.2516 20.1874 76.2432 19.835 75.0414 20.9062C74.3958 21.4798 74.3478 22.6201 74.9862 23.173C77.1978 25.0805 76.1124 27.4717 73.9356 28.2527C71.1468 29.2548 68.8944 27.914 68.214 25.7301C67.6788 24.0093 68.0634 21.6664 70.4052 20.1943C72.6924 18.7637 76.0164 18.4389 78.1728 18.4389C81.882 18.4389 87.768 20.0423 87.768 24.6728V34.8459C87.7746 38.0043 89.6706 37.7071 90.8514 37.1127Z" fill="#39373A"/>
<path fill-rule="evenodd" clip-rule="evenodd" d="M130.81 7.3258H134.458C136.463 7.3258 138.104 8.97756 138.104 10.9956C138.104 13.0137 136.463 14.6654 134.458 14.6654H123.509V3.65599C123.509 1.74852 124.979 0.165867 126.834 0H127.48C129.334 0.165867 130.804 1.74852 130.804 3.65599V7.3258H130.81Z" fill="#FFCC29"/>
<path d="M48.4067 51.6469C48.2693 51.4465 48.1388 51.2599 48.022 51.0871C47.8984 50.9143 47.7816 50.7416 47.6649 50.5757L47.0811 49.7325H46.7926V48.9239H47.0673L47.5893 48.2329C47.7129 48.0669 47.8366 47.908 47.9602 47.7421C48.0839 47.5832 48.2212 47.3896 48.386 47.1754H49.5674C49.3751 47.4104 49.1828 47.6454 49.0042 47.8734C48.8187 48.1015 48.6333 48.3296 48.4547 48.5646L47.7542 49.4354L47.7336 48.9792L48.5165 50.0643C48.6333 50.2301 48.7638 50.4098 48.9011 50.6033C49.0385 50.7969 49.1759 50.9834 49.3064 51.1631C49.4369 51.3429 49.5536 51.5018 49.6498 51.64H48.4067V51.6469ZM45.8517 51.6469C45.8517 51.405 45.8517 51.1769 45.8517 50.9489C45.8517 50.7208 45.8517 50.472 45.8517 50.1887V48.6752C45.8517 48.3849 45.8517 48.1291 45.8517 47.8942C45.8517 47.6592 45.8517 47.4242 45.8517 47.1823H46.875C46.875 47.4242 46.875 47.6661 46.875 47.8942C46.875 48.1222 46.875 48.3849 46.875 48.6752V50.1887C46.875 50.472 46.875 50.7208 46.875 50.9489C46.875 51.1769 46.875 51.405 46.875 51.6469H45.8517Z" fill="#39373A"/>
<path d="M54.1759 51.6469C54.1759 51.405 54.1759 51.1769 54.1759 50.9488C54.1759 50.7208 54.1759 50.472 54.1759 50.1887V48.6751C54.1759 48.3848 54.1759 48.1291 54.1759 47.8941C54.1759 47.6592 54.1759 47.4242 54.1759 47.1823H55.2198C55.2198 47.4242 55.2198 47.6661 55.2198 47.8941C55.2198 48.1222 55.2198 48.3848 55.2198 48.6751V50.1887C55.2198 50.472 55.2198 50.7208 55.2198 50.9488C55.2198 51.1769 55.2198 51.405 55.2198 51.6469H54.1759Z" fill="#39373A"/>
<path d="M61.1334 51.6469C61.1334 51.405 61.1334 51.1769 61.1334 50.9489C61.1334 50.7208 61.1334 50.472 61.1334 50.1887V48.8341C61.1334 48.5438 61.1334 48.2881 61.1334 48.0531C61.1334 47.8251 61.1334 47.5832 61.1334 47.3413L61.518 48.0739H60.927C60.6936 48.0739 60.4878 48.0739 60.3024 48.0739C60.1236 48.0739 59.9519 48.0739 59.7871 48.0739V47.1754H63.489V48.0739C63.324 48.0739 63.1596 48.0739 62.9742 48.0739C62.7954 48.0739 62.5824 48.0739 62.349 48.0739H61.758L62.1498 47.3413C62.1498 47.5832 62.1498 47.8251 62.1498 48.0531C62.1498 48.2881 62.1498 48.5438 62.1498 48.8341V50.1887C62.1498 50.472 62.1498 50.7208 62.1498 50.9489C62.1498 51.1769 62.1498 51.405 62.1498 51.6469H61.1334Z" fill="#39373A"/>
<path d="M70.0482 51.7298C69.684 51.7298 69.3612 51.6746 69.0726 51.564C68.7846 51.4534 68.5368 51.2944 68.331 51.0871C68.1252 50.8798 67.9668 50.6379 67.8642 50.3545C67.7538 50.0712 67.7058 49.7602 67.7058 49.4146C67.7058 48.9654 67.7952 48.5646 67.974 48.219C68.1522 47.8665 68.4132 47.5901 68.7498 47.3896C69.0864 47.1892 69.492 47.0925 69.9654 47.0925C70.11 47.0925 70.254 47.0994 70.3914 47.1201C70.5288 47.1408 70.6662 47.1616 70.797 47.1961C70.9272 47.2307 71.0442 47.2653 71.154 47.2998C71.2638 47.3413 71.3598 47.3827 71.4492 47.4311L71.3736 48.3918C71.2086 48.2881 71.0574 48.2051 70.9068 48.1429C70.7556 48.0808 70.611 48.0393 70.4736 48.0116C70.3368 47.984 70.206 47.9702 70.0824 47.9702C69.828 47.9702 69.6018 48.0255 69.4092 48.1361C69.21 48.2466 69.0588 48.4125 68.9424 48.6267C68.8326 48.841 68.7708 49.1036 68.7708 49.4146C68.7708 49.615 68.7978 49.8017 68.8596 49.9744C68.9148 50.1472 69.0042 50.3062 69.1206 50.4444C69.2376 50.5826 69.3816 50.6863 69.5604 50.7623C69.7392 50.8383 69.945 50.8798 70.1784 50.8798C70.275 50.8798 70.3776 50.8728 70.4736 50.859C70.5702 50.8452 70.6728 50.8245 70.7694 50.7968C70.8654 50.7692 70.9686 50.7277 71.0646 50.6793C71.1606 50.631 71.2638 50.5688 71.3598 50.4927L71.415 51.4396C71.3256 51.488 71.2296 51.5363 71.1198 51.5709C71.0094 51.6054 70.8996 51.64 70.7832 51.6607C70.6662 51.6884 70.5426 51.7022 70.419 51.716C70.2954 51.7298 70.1718 51.7298 70.0482 51.7298Z" fill="#39373A"/>
<path d="M78.8874 51.6469C78.8874 51.405 78.8874 51.1769 78.8874 50.9488C78.8874 50.7208 78.8874 50.472 78.8874 50.1887V48.6751C78.8874 48.3848 78.8874 48.1291 78.8874 47.8941C78.8874 47.6592 78.8874 47.4242 78.8874 47.1823H79.9176C79.9176 47.4242 79.9176 47.6661 79.9176 47.8941C79.9176 48.1222 79.9176 48.3848 79.9176 48.6751V50.1887C79.9176 50.472 79.9176 50.7208 79.9176 50.9488C79.9176 51.1769 79.9176 51.405 79.9176 51.6469H78.8874ZM76.1196 51.6469C76.1196 51.405 76.1196 51.1769 76.1196 50.9488C76.1196 50.7208 76.1196 50.472 76.1196 50.1887V48.6751C76.1196 48.3848 76.1196 48.1291 76.1196 47.8941C76.1196 47.6592 76.1196 47.4242 76.1196 47.1823H77.1426C77.1426 47.4242 77.1426 47.6661 77.1426 47.8941C77.1426 48.1222 77.1426 48.3848 77.1426 48.6751V50.1887C77.1426 50.472 77.1426 50.7208 77.1426 50.9488C77.1426 51.1769 77.1426 51.405 77.1426 51.6469H76.1196ZM76.8612 49.8292V48.9723H79.1826V49.8292H76.8612Z" fill="#39373A"/>
<path d="M84.7458 51.6469C84.7458 51.405 84.7458 51.1769 84.7458 50.9488C84.7458 50.7208 84.7458 50.472 84.7458 50.1887V48.6751C84.7458 48.3848 84.7458 48.1291 84.7458 47.8941C84.7458 47.6592 84.7458 47.4242 84.7458 47.1823H87.6853V48.0186C87.4933 48.0186 87.2869 48.0186 87.0745 48.0186C86.8543 48.0186 86.6005 48.0186 86.3053 48.0186H85.2613L85.7485 47.3413C85.7485 47.5832 85.7485 47.825 85.7485 48.0531C85.7485 48.2881 85.7485 48.5438 85.7485 48.8341V50.0228C85.7485 50.2992 85.7485 50.555 85.7485 50.7761C85.7485 51.0042 85.7485 51.2391 85.7485 51.4741L85.3231 50.7968H86.3737C86.6209 50.7968 86.8543 50.7968 87.0745 50.7968C87.2941 50.7968 87.5071 50.7968 87.7129 50.7968V51.6331H84.7458V51.6469ZM85.5085 49.7878V49.0069H86.3185C86.5933 49.0069 86.8267 49.0069 87.0193 49.0069C87.2113 49.0069 87.3973 49.0069 87.5827 49.0069V49.7878C87.3901 49.7878 87.1981 49.7878 87.0055 49.7878C86.8135 49.7878 86.5795 49.7878 86.3119 49.7878H85.5085Z" fill="#39373A"/>
<path d="M92.4108 51.6469C92.4108 51.405 92.4108 51.177 92.4108 50.9489C92.4108 50.7208 92.4108 50.472 92.4108 50.1887V48.6751C92.4108 48.3848 92.4108 48.1291 92.4108 47.8941C92.4108 47.6592 92.4108 47.4242 92.4108 47.1823H93.3036C93.5094 47.4864 93.7086 47.7767 93.894 48.0462C94.0794 48.3158 94.2654 48.5853 94.4508 48.8617L95.172 49.9122H95.247V48.6821C95.247 48.3918 95.247 48.1361 95.247 47.9011C95.247 47.6661 95.247 47.4311 95.247 47.1892H96.2088C96.2088 47.4311 96.2088 47.673 96.2088 47.9011C96.2088 48.1291 96.2088 48.3918 96.2088 48.6821V50.1956C96.2088 50.4789 96.2088 50.7277 96.2088 50.9558C96.2088 51.1838 96.2088 51.4119 96.2088 51.6538H95.3226C95.151 51.405 94.9728 51.1424 94.7868 50.8728C94.6014 50.6033 94.3956 50.3062 94.176 49.9813L93.4476 48.917H93.3792V50.1956C93.3792 50.4789 93.3792 50.7277 93.3792 50.9558C93.3792 51.1838 93.3792 51.4119 93.3792 51.6538H92.4108V51.6469Z" fill="#39373A"/>
<path d="M102.445 51.7298C102.26 51.7298 102.074 51.716 101.875 51.6815C101.683 51.6538 101.497 51.6123 101.332 51.564C101.161 51.5156 101.023 51.4672 100.921 51.4119L100.996 50.5065C101.14 50.5895 101.291 50.6586 101.449 50.7139C101.607 50.7692 101.765 50.8176 101.916 50.8452C102.067 50.8728 102.225 50.8936 102.362 50.8936C102.507 50.8936 102.631 50.8728 102.733 50.8383C102.836 50.8038 102.919 50.7485 102.981 50.6793C103.036 50.6102 103.07 50.5135 103.07 50.396C103.07 50.2785 103.036 50.1817 102.96 50.1057C102.884 50.0297 102.775 49.9606 102.637 49.9053C102.493 49.85 102.328 49.7947 102.136 49.7325C101.868 49.6496 101.635 49.5597 101.442 49.4561C101.25 49.3524 101.106 49.2142 101.003 49.0483C100.9 48.8824 100.852 48.6682 100.852 48.4056C100.852 48.143 100.907 47.9149 101.023 47.7145C101.14 47.5141 101.312 47.362 101.539 47.2445C101.772 47.134 102.061 47.0786 102.41 47.0786C102.548 47.0786 102.692 47.0855 102.83 47.1063C102.967 47.127 103.105 47.1478 103.235 47.1754C103.366 47.203 103.489 47.2376 103.599 47.2722C103.709 47.3136 103.812 47.3482 103.894 47.3896L103.819 48.295C103.688 48.2121 103.544 48.143 103.406 48.0876C103.262 48.0324 103.125 47.9909 102.988 47.9564C102.85 47.9287 102.727 47.9149 102.617 47.9149C102.493 47.9149 102.376 47.9287 102.274 47.9633C102.17 47.9978 102.088 48.0462 102.026 48.1153C101.964 48.1844 101.937 48.2674 101.937 48.3779C101.937 48.4816 101.964 48.5646 102.026 48.6336C102.081 48.7028 102.17 48.7649 102.294 48.8202C102.41 48.8756 102.569 48.9309 102.754 48.9861C103.111 49.0898 103.386 49.2004 103.592 49.3179C103.798 49.4354 103.942 49.5736 104.032 49.7394C104.114 49.9053 104.162 50.1057 104.162 50.3545C104.162 50.631 104.1 50.866 103.984 51.0663C103.867 51.2668 103.681 51.4258 103.427 51.5433C103.166 51.6746 102.844 51.7298 102.445 51.7298Z" fill="#39373A"/>
<path d="M48.4067 51.6469C48.2693 51.4465 48.1388 51.2599 48.022 51.0871C47.8984 50.9143 47.7816 50.7416 47.6649 50.5757L47.0811 49.7325H46.7926V48.9239H47.0673L47.5893 48.2329C47.7129 48.0669 47.8366 47.908 47.9602 47.7421C48.0839 47.5832 48.2212 47.3896 48.386 47.1754H49.5674C49.3751 47.4104 49.1828 47.6454 49.0042 47.8734C48.8187 48.1015 48.6333 48.3296 48.4547 48.5646L47.7542 49.4354L47.7336 48.9792L48.5165 50.0643C48.6333 50.2301 48.7638 50.4098 48.9011 50.6033C49.0385 50.7969 49.1759 50.9834 49.3064 51.1631C49.4369 51.3429 49.5536 51.5018 49.6498 51.64H48.4067V51.6469ZM45.8517 51.6469C45.8517 51.405 45.8517 51.1769 45.8517 50.9489C45.8517 50.7208 45.8517 50.472 45.8517 50.1887V48.6752C45.8517 48.3849 45.8517 48.1291 45.8517 47.8942C45.8517 47.6592 45.8517 47.4242 45.8517 47.1823H46.875C46.875 47.4242 46.875 47.6661 46.875 47.8942C46.875 48.1222 46.875 48.3849 46.875 48.6752V50.1887C46.875 50.472 46.875 50.7208 46.875 50.9489C46.875 51.1769 46.875 51.405 46.875 51.6469H45.8517Z" stroke="#39373A" stroke-width="0.8963" stroke-miterlimit="25.3694"/>
<path d="M54.1759 51.6469C54.1759 51.405 54.1759 51.1769 54.1759 50.9488C54.1759 50.7208 54.1759 50.472 54.1759 50.1887V48.6751C54.1759 48.3848 54.1759 48.1291 54.1759 47.8941C54.1759 47.6592 54.1759 47.4242 54.1759 47.1823H55.2198C55.2198 47.4242 55.2198 47.6661 55.2198 47.8941C55.2198 48.1222 55.2198 48.3848 55.2198 48.6751V50.1887C55.2198 50.472 55.2198 50.7208 55.2198 50.9488C55.2198 51.1769 55.2198 51.405 55.2198 51.6469H54.1759Z" stroke="#39373A" stroke-width="0.8963" stroke-miterlimit="25.3694"/>
<path d="M61.1334 51.6469C61.1334 51.405 61.1334 51.1769 61.1334 50.9489C61.1334 50.7208 61.1334 50.472 61.1334 50.1887V48.8341C61.1334 48.5438 61.1334 48.2881 61.1334 48.0531C61.1334 47.8251 61.1334 47.5832 61.1334 47.3413L61.518 48.0739H60.927C60.6936 48.0739 60.4878 48.0739 60.3024 48.0739C60.1236 48.0739 59.9519 48.0739 59.7871 48.0739V47.1754H63.489V48.0739C63.324 48.0739 63.1596 48.0739 62.9742 48.0739C62.7954 48.0739 62.5824 48.0739 62.349 48.0739H61.758L62.1498 47.3413C62.1498 47.5832 62.1498 47.8251 62.1498 48.0531C62.1498 48.2881 62.1498 48.5438 62.1498 48.8341V50.1887C62.1498 50.472 62.1498 50.7208 62.1498 50.9489C62.1498 51.1769 62.1498 51.405 62.1498 51.6469H61.1334Z" stroke="#39373A" stroke-width="0.8963" stroke-miterlimit="25.3694"/>
<path d="M70.0482 51.7298C69.684 51.7298 69.3612 51.6746 69.0726 51.564C68.7846 51.4534 68.5368 51.2944 68.331 51.0871C68.1252 50.8798 67.9668 50.6379 67.8642 50.3545C67.7538 50.0712 67.7058 49.7602 67.7058 49.4146C67.7058 48.9654 67.7952 48.5646 67.974 48.219C68.1522 47.8665 68.4132 47.5901 68.7498 47.3896C69.0864 47.1892 69.492 47.0925 69.9654 47.0925C70.11 47.0925 70.254 47.0994 70.3914 47.1201C70.5288 47.1408 70.6662 47.1616 70.797 47.1961C70.9272 47.2307 71.0442 47.2653 71.154 47.2998C71.2638 47.3413 71.3598 47.3827 71.4492 47.4311L71.3736 48.3918C71.2086 48.2881 71.0574 48.2051 70.9068 48.1429C70.7556 48.0808 70.611 48.0393 70.4736 48.0116C70.3368 47.984 70.206 47.9702 70.0824 47.9702C69.828 47.9702 69.6018 48.0255 69.4092 48.1361C69.21 48.2466 69.0588 48.4125 68.9424 48.6267C68.8326 48.841 68.7708 49.1036 68.7708 49.4146C68.7708 49.615 68.7978 49.8017 68.8596 49.9744C68.9148 50.1472 69.0042 50.3062 69.1206 50.4444C69.2376 50.5826 69.3816 50.6863 69.5604 50.7623C69.7392 50.8383 69.945 50.8798 70.1784 50.8798C70.275 50.8798 70.3776 50.8728 70.4736 50.859C70.5702 50.8452 70.6728 50.8245 70.7694 50.7968C70.8654 50.7692 70.9686 50.7277 71.0646 50.6793C71.1606 50.631 71.2638 50.5688 71.3598 50.4927L71.415 51.4396C71.3256 51.488 71.2296 51.5363 71.1198 51.5709C71.0094 51.6054 70.8996 51.64 70.7832 51.6607C70.6662 51.6884 70.5426 51.7022 70.419 51.716C70.2954 51.7298 70.1718 51.7298 70.0482 51.7298Z" stroke="#39373A" stroke-width="0.8963" stroke-miterlimit="25.3694"/>
<path d="M78.8874 51.6469C78.8874 51.405 78.8874 51.1769 78.8874 50.9488C78.8874 50.7208 78.8874 50.472 78.8874 50.1887V48.6751C78.8874 48.3848 78.8874 48.1291 78.8874 47.8941C78.8874 47.6592 78.8874 47.4242 78.8874 47.1823H79.9176C79.9176 47.4242 79.9176 47.6661 79.9176 47.8941C79.9176 48.1222 79.9176 48.3848 79.9176 48.6751V50.1887C79.9176 50.472 79.9176 50.7208 79.9176 50.9488C79.9176 51.1769 79.9176 51.405 79.9176 51.6469H78.8874ZM76.1196 51.6469C76.1196 51.405 76.1196 51.1769 76.1196 50.9488C76.1196 50.7208 76.1196 50.472 76.1196 50.1887V48.6751C76.1196 48.3848 76.1196 48.1291 76.1196 47.8941C76.1196 47.6592 76.1196 47.4242 76.1196 47.1823H77.1426C77.1426 47.4242 77.1426 47.6661 77.1426 47.8941C77.1426 48.1222 77.1426 48.3848 77.1426 48.6751V50.1887C77.1426 50.472 77.1426 50.7208 77.1426 50.9488C77.1426 51.1769 77.1426 51.405 77.1426 51.6469H76.1196ZM76.8612 49.8292V48.9723H79.1826V49.8292H76.8612Z" stroke="#39373A" stroke-width="0.8963" stroke-miterlimit="25.3694"/>
<path d="M84.7458 51.6469C84.7458 51.405 84.7458 51.1769 84.7458 50.9488C84.7458 50.7208 84.7458 50.472 84.7458 50.1887V48.6751C84.7458 48.3848 84.7458 48.1291 84.7458 47.8941C84.7458 47.6592 84.7458 47.4242 84.7458 47.1823H87.6853V48.0186C87.4933 48.0186 87.2869 48.0186 87.0745 48.0186C86.8543 48.0186 86.6005 48.0186 86.3053 48.0186H85.2613L85.7485 47.3413C85.7485 47.5832 85.7485 47.825 85.7485 48.0531C85.7485 48.2881 85.7485 48.5438 85.7485 48.8341V50.0228C85.7485 50.2992 85.7485 50.555 85.7485 50.7761C85.7485 51.0042 85.7485 51.2391 85.7485 51.4741L85.3231 50.7968H86.3737C86.6209 50.7968 86.8543 50.7968 87.0745 50.7968C87.2941 50.7968 87.5071 50.7968 87.7129 50.7968V51.6331H84.7458V51.6469ZM85.5085 49.7878V49.0069H86.3185C86.5933 49.0069 86.8267 49.0069 87.0193 49.0069C87.2113 49.0069 87.3973 49.0069 87.5827 49.0069V49.7878C87.3901 49.7878 87.1981 49.7878 87.0055 49.7878C86.8135 49.7878 86.5795 49.7878 86.3119 49.7878H85.5085Z" stroke="#39373A" stroke-width="0.8963" stroke-miterlimit="25.3694"/>
<path d="M92.4108 51.6469C92.4108 51.405 92.4108 51.177 92.4108 50.9489C92.4108 50.7208 92.4108 50.472 92.4108 50.1887V48.6751C92.4108 48.3848 92.4108 48.1291 92.4108 47.8941C92.4108 47.6592 92.4108 47.4242 92.4108 47.1823H93.3036C93.5094 47.4864 93.7086 47.7767 93.894 48.0462C94.0794 48.3158 94.2654 48.5853 94.4508 48.8617L95.172 49.9122H95.247V48.6821C95.247 48.3918 95.247 48.1361 95.247 47.9011C95.247 47.6661 95.247 47.4311 95.247 47.1892H96.2088C96.2088 47.4311 96.2088 47.673 96.2088 47.9011C96.2088 48.1291 96.2088 48.3918 96.2088 48.6821V50.1956C96.2088 50.4789 96.2088 50.7277 96.2088 50.9558C96.2088 51.1838 96.2088 51.4119 96.2088 51.6538H95.3226C95.151 51.405 94.9728 51.1424 94.7868 50.8728C94.6014 50.6033 94.3956 50.3062 94.176 49.9813L93.4476 48.917H93.3792V50.1956C93.3792 50.4789 93.3792 50.7277 93.3792 50.9558C93.3792 51.1838 93.3792 51.4119 93.3792 51.6538H92.4108V51.6469Z" stroke="#39373A" stroke-width="0.8963" stroke-miterlimit="25.3694"/>
<path d="M102.445 51.7298C102.26 51.7298 102.074 51.716 101.875 51.6815C101.683 51.6538 101.497 51.6123 101.332 51.564C101.161 51.5156 101.023 51.4672 100.921 51.4119L100.996 50.5065C101.14 50.5895 101.291 50.6586 101.449 50.7139C101.607 50.7692 101.765 50.8176 101.916 50.8452C102.067 50.8728 102.225 50.8936 102.362 50.8936C102.507 50.8936 102.631 50.8728 102.733 50.8383C102.836 50.8038 102.919 50.7485 102.981 50.6793C103.036 50.6102 103.07 50.5135 103.07 50.396C103.07 50.2785 103.036 50.1817 102.96 50.1057C102.884 50.0297 102.775 49.9606 102.637 49.9053C102.493 49.85 102.328 49.7947 102.136 49.7325C101.868 49.6496 101.635 49.5597 101.442 49.4561C101.25 49.3524 101.106 49.2142 101.003 49.0483C100.9 48.8824 100.852 48.6682 100.852 48.4056C100.852 48.143 100.907 47.9149 101.023 47.7145C101.14 47.5141 101.312 47.362 101.539 47.2445C101.772 47.134 102.061 47.0786 102.41 47.0786C102.548 47.0786 102.692 47.0855 102.83 47.1063C102.967 47.127 103.105 47.1478 103.235 47.1754C103.366 47.203 103.489 47.2376 103.599 47.2722C103.709 47.3136 103.812 47.3482 103.894 47.3896L103.819 48.295C103.688 48.2121 103.544 48.143 103.406 48.0876C103.262 48.0324 103.125 47.9909 102.988 47.9564C102.85 47.9287 102.727 47.9149 102.617 47.9149C102.493 47.9149 102.376 47.9287 102.274 47.9633C102.17 47.9978 102.088 48.0462 102.026 48.1153C101.964 48.1844 101.937 48.2674 101.937 48.3779C101.937 48.4816 101.964 48.5646 102.026 48.6336C102.081 48.7028 102.17 48.7649 102.294 48.8202C102.41 48.8756 102.569 48.9309 102.754 48.9861C103.111 49.0898 103.386 49.2004 103.592 49.3179C103.798 49.4354 103.942 49.5736 104.032 49.7394C104.114 49.9053 104.162 50.1057 104.162 50.3545C104.162 50.631 104.1 50.866 103.984 51.0663C103.867 51.2668 103.681 51.4258 103.427 51.5433C103.166 51.6746 102.844 51.7298 102.445 51.7298Z" stroke="#39373A" stroke-width="0.8963" stroke-miterlimit="25.3694"/>
</svg>
