<svg width="24" height="12" viewBox="0 0 24 12" fill="none" xmlns="http://www.w3.org/2000/svg">
<g id="menu">
<path id="Union" fill-rule="evenodd" clip-rule="evenodd" d="M0 1C0 0.447715 0.447716 0 1 0H23C23.5523 0 24 0.447715 24 1C24 1.55228 23.5523 2 23 2H1C0.447715 2 0 1.55228 0 1ZM0 6C0 5.44772 0.447716 5 1 5H23C23.5523 5 24 5.44772 24 6C24 6.55228 23.5523 7 23 7H1C0.447715 7 0 6.55228 0 6ZM24 11C24 10.4477 23.5523 10 23 10H1C0.447715 10 0 10.4477 0 11C0 11.5523 0.447716 12 1 12H23C23.5523 12 24 11.5523 24 11Z" fill="#383838"/>
</g>
</svg>
