<svg width="20" height="20" viewBox="0 0 20 20" fill="none" xmlns="http://www.w3.org/2000/svg">
<g clip-path="url(#clip0_142_90)">
<path d="M9.51246 19.7391C9.62113 19.9021 9.8041 20 10 20C10.1959 20 10.3789 19.9021 10.4875 19.7391C11.8742 17.6591 13.9167 15.0903 15.34 12.4778C16.478 10.3889 17.0312 8.60727 17.0312 7.03125C17.0312 3.15422 13.877 0 10 0C6.12297 0 2.96875 3.15422 2.96875 7.03125C2.96875 8.60727 3.52199 10.3889 4.66004 12.4778C6.08227 15.0883 8.12863 17.6634 9.51246 19.7391ZM10 1.17188C13.2309 1.17188 15.8594 3.80039 15.8594 7.03125C15.8594 8.40641 15.3529 10.0046 14.3109 11.9171C13.0841 14.1691 11.3334 16.4534 10 18.3738C8.66684 16.4537 6.91602 14.1692 5.6891 11.9171C4.64715 10.0046 4.14062 8.40641 4.14062 7.03125C4.14062 3.80039 6.76914 1.17188 10 1.17188Z" fill="#FFCC29"/>
<path d="M10 10.5469C11.9385 10.5469 13.5156 8.96977 13.5156 7.03125C13.5156 5.09273 11.9385 3.51562 10 3.51562C8.06148 3.51562 6.48438 5.09273 6.48438 7.03125C6.48438 8.96977 8.06148 10.5469 10 10.5469ZM10 4.6875C11.2923 4.6875 12.3438 5.73891 12.3438 7.03125C12.3438 8.32359 11.2923 9.375 10 9.375C8.70766 9.375 7.65625 8.32359 7.65625 7.03125C7.65625 5.73891 8.70766 4.6875 10 4.6875Z" fill="#FFCC29"/>
</g>
<defs>
<clipPath id="clip0_142_90">
<rect width="20" height="20" fill="white"/>
</clipPath>
</defs>
</svg>
