<svg width="20" height="20" viewBox="0 0 20 20" fill="none" xmlns="http://www.w3.org/2000/svg">
<g clip-path="url(#clip0_142_96)">
<path d="M4.07533 13.2947C6.04798 15.6527 8.42262 17.5093 11.1329 18.823C12.1648 19.3121 13.5449 19.8923 15.0824 19.9917C15.1777 19.9959 15.2689 20 15.3642 20C16.3961 20 17.2249 19.6436 17.9005 18.9101C17.9046 18.9059 17.9129 18.8976 17.917 18.8893C18.1574 18.5993 18.4309 18.3382 18.7169 18.0605C18.9116 17.874 19.1106 17.6792 19.3012 17.4803C20.1839 16.5603 20.1839 15.3916 19.2929 14.5006L16.8022 12.0099C16.3795 11.5707 15.8739 11.3386 15.3435 11.3386C14.813 11.3386 14.3033 11.5707 13.8681 12.0058L12.3845 13.4894C12.2477 13.4107 12.1068 13.3402 11.9742 13.2739C11.8084 13.191 11.6551 13.1123 11.5183 13.0253C10.1673 12.1674 8.94064 11.0485 7.76783 9.61044C7.17521 8.86034 6.77736 8.23042 6.4997 7.58807C6.88925 7.23581 7.25395 6.86697 7.6062 6.50642C7.73053 6.37795 7.859 6.24948 7.98747 6.12101C8.43505 5.67344 8.67541 5.15541 8.67541 4.62909C8.67541 4.10278 8.43919 3.58475 7.98747 3.13717L6.75249 1.9022C6.60745 1.75715 6.47069 1.61625 6.32978 1.4712C6.05627 1.18939 5.77031 0.899296 5.48851 0.63821C5.06165 0.219644 4.5602 0 4.02974 0C3.50342 0 2.99783 0.219644 2.5544 0.642354L1.00446 2.19229C0.440844 2.75591 0.121739 3.4397 0.0554318 4.23125C-0.0233084 5.22172 0.159037 6.27435 0.631479 7.54662C1.35672 9.51513 2.45079 11.3427 4.07533 13.2947ZM1.06662 4.31828C1.11635 3.76709 1.32771 3.30709 1.72555 2.90924L3.2672 1.36759C3.50757 1.13552 3.7728 1.01533 4.02974 1.01533C4.28254 1.01533 4.53948 1.13552 4.7757 1.37588C5.05336 1.63282 5.31445 1.9022 5.59626 2.18815C5.73716 2.3332 5.88221 2.47824 6.02726 2.62743L7.26223 3.86241C7.51918 4.11935 7.65179 4.38044 7.65179 4.63738C7.65179 4.89432 7.51918 5.15541 7.26223 5.41235C7.13376 5.54082 7.00529 5.67344 6.87682 5.80191C6.49141 6.19146 6.13086 6.5603 5.73302 6.91256C5.72473 6.92085 5.72058 6.92499 5.7123 6.93328C5.36833 7.27725 5.4222 7.60464 5.50508 7.85329C5.50923 7.86573 5.51337 7.87402 5.51752 7.88645C5.83662 8.65313 6.28005 9.38251 6.97214 10.2528C8.21541 11.7862 9.52498 12.9755 10.9672 13.8914C11.1454 14.0075 11.336 14.0986 11.5142 14.1898C11.68 14.2727 11.8333 14.3514 11.9701 14.4385C11.9866 14.4467 11.9991 14.455 12.0157 14.4633C12.1524 14.5338 12.285 14.5669 12.4176 14.5669C12.7492 14.5669 12.9647 14.3556 13.0351 14.2851L14.5851 12.7352C14.8254 12.4948 15.0865 12.3663 15.3435 12.3663C15.6584 12.3663 15.9154 12.5611 16.077 12.7352L18.576 15.23C19.0733 15.7273 19.0691 16.2661 18.5635 16.7924C18.3895 16.9789 18.2071 17.1571 18.0123 17.3436C17.7223 17.6254 17.4197 17.9155 17.1462 18.2429C16.6696 18.7567 16.1019 18.9971 15.3683 18.9971C15.2979 18.9971 15.2233 18.993 15.1528 18.9888C13.7935 18.9018 12.5295 18.3713 11.5805 17.9196C9.00281 16.6722 6.74006 14.9026 4.86273 12.6564C3.31693 10.7957 2.27673 9.06341 1.58879 7.2068C1.16194 6.06714 1.00031 5.15126 1.06662 4.31828Z" fill="#FFCC29"/>
</g>
<defs>
<clipPath id="clip0_142_96">
<rect width="20" height="20" fill="white"/>
</clipPath>
</defs>
</svg>
