<svg width="19" height="19" viewBox="0 0 19 19" fill="none" xmlns="http://www.w3.org/2000/svg">
<path d="M10.7473 1.94727H7.88418C5.12839 1.94727 2.87366 4.202 2.87366 6.95779V9.10516C2.87366 11.0378 4.00102 12.8094 5.73681 13.6325V16.0304C5.73681 16.2452 6.00523 16.3525 6.14839 16.1915L8.22418 14.1157H10.7473C13.5031 14.1157 15.7579 11.8609 15.7579 9.10516V6.95779C15.7579 4.202 13.5031 1.94727 10.7473 1.94727ZM12.6263 11.342L11.8926 12.0578C11.1231 12.8094 9.13681 11.9504 7.38313 10.1609C5.62944 8.37147 4.85997 6.36726 5.59365 5.61568L6.30944 4.8999C6.57786 4.63147 7.02523 4.64937 7.32944 4.91779L8.36734 5.99147C8.74313 6.36726 8.58207 7.01147 8.09892 7.15463C7.75892 7.262 7.52628 7.63779 7.63365 7.97779C7.8126 8.76516 8.8147 9.76726 9.56628 9.9641C9.90628 10.0357 10.2821 9.85674 10.4073 9.51674C10.5684 9.03358 11.2126 8.89042 11.5705 9.26621L12.6084 10.3399C12.8947 10.5904 12.8947 11.0378 12.6263 11.342ZM9.95997 5.34726C9.88839 5.34726 9.81681 5.34726 9.74523 5.36516C9.61997 5.38305 9.4947 5.27569 9.47681 5.15042C9.45891 5.02516 9.56628 4.8999 9.69155 4.882C9.78102 4.86411 9.87049 4.86411 9.95997 4.86411C11.2663 4.86411 12.34 5.93779 12.34 7.2441C12.34 7.33358 12.34 7.42305 12.3221 7.51253C12.3042 7.63779 12.1789 7.74516 12.0536 7.72726C11.9284 7.70937 11.821 7.58411 11.8389 7.45884C11.8389 7.38726 11.8568 7.31568 11.8568 7.2441C11.8747 6.20621 11.0158 5.34726 9.95997 5.34726ZM11.3915 7.262C11.3915 7.38726 11.2842 7.49463 11.1589 7.49463C11.0336 7.49463 10.9263 7.38726 10.9263 7.262C10.9263 6.74305 10.4968 6.31358 9.97786 6.31358C9.8526 6.31358 9.74523 6.20621 9.74523 6.08095C9.74523 5.95568 9.8526 5.84832 9.97786 5.84832C10.7473 5.83042 11.3915 6.47463 11.3915 7.262ZM13.2168 8.03147C13.181 8.15674 13.0558 8.24621 12.9126 8.21042C12.7873 8.17463 12.7158 8.04937 12.7515 7.92411C12.8052 7.70937 12.8231 7.49463 12.8231 7.262C12.8231 5.68726 11.5347 4.39884 9.95997 4.39884C9.88839 4.39884 9.81681 4.39884 9.74523 4.39884C9.61997 4.39884 9.4947 4.30937 9.4947 4.18411C9.4947 4.05884 9.58418 3.93358 9.70944 3.93358C9.79891 3.93358 9.88839 3.91569 9.95997 3.91569C11.8031 3.91569 13.3063 5.41884 13.3063 7.262C13.3063 7.51253 13.2705 7.78095 13.2168 8.03147Z" fill="#39373A"/>
</svg>
