<svg width="64" height="64" viewBox="0 0 64 64" fill="none" xmlns="http://www.w3.org/2000/svg">
<path d="M60.42 33.8998C59.8818 32.9878 59.0076 32.3232 57.985 32.0483C56.9624 31.7735 55.8728 31.9105 54.95 32.4298L44.91 38.2298C44.7545 37.3675 44.3144 36.5823 43.66 35.9998C42.9211 35.3531 41.9719 34.9976 40.99 34.9998H31.83C31.6977 34.9992 31.5668 34.9724 31.4449 34.9209C31.3231 34.8694 31.2126 34.7942 31.12 34.6998L30.88 34.4598C29.9411 33.5278 28.6729 33.0033 27.35 32.9998H23.32C22.1364 32.9966 20.9639 33.2284 19.8705 33.6815C18.7771 34.1347 17.7844 34.8003 16.95 35.6398L13.01 39.5898L12.71 39.2898C12.5193 39.1056 12.2651 39.0017 12 38.9998C11.8677 39.0003 11.7368 39.0271 11.6149 39.0786C11.4931 39.1301 11.3826 39.2053 11.29 39.2998L9.01 41.5898L8.71 41.2898C8.61038 41.1913 8.49136 41.1147 8.36052 41.0648C8.22968 41.0148 8.08987 40.9927 7.95 40.9998C7.81124 41.0049 7.67518 41.0396 7.55098 41.1017C7.42678 41.1638 7.31734 41.2518 7.23 41.3598L2.23 47.3598C2.08092 47.5397 1.99955 47.7661 2 47.9998V60.9998C2 61.265 2.10536 61.5193 2.2929 61.7069C2.48043 61.8944 2.73479 61.9998 3 61.9998H19C19.2651 61.9978 19.5193 61.894 19.71 61.7098L23.71 57.7098C23.8973 57.5209 24.0025 57.2657 24.0025 56.9998C24.0025 56.7338 23.8973 56.4786 23.71 56.2898L23.41 55.9898L25.7 53.7098C25.7944 53.6175 25.8696 53.5074 25.9212 53.3859C25.9728 53.2644 25.9999 53.1339 26.0008 53.0018C26.0017 52.8698 25.9765 52.7389 25.9266 52.6167C25.8767 52.4945 25.8031 52.3834 25.71 52.2898L25.42 52.0098L27.54 49.8798C27.8168 49.5991 28.147 49.3767 28.5111 49.2256C28.8752 49.0745 29.2658 48.9977 29.66 48.9998H40.93C41.8083 49.0045 42.6718 48.7731 43.43 48.3298L58.95 39.3698C59.8675 38.8367 60.537 37.9625 60.8123 36.9377C61.0877 35.913 60.9467 34.8209 60.42 33.8998ZM18.59 59.9998H4V48.3598L8.07 43.4798L21.59 56.9998L18.59 59.9998ZM21.99 54.5798L10.42 43.0098L12 41.4198L23.3 52.7198H23.31L23.58 52.9998L21.99 54.5798ZM57.95 37.6298L42.42 46.5998C41.9678 46.8633 41.4534 47.0013 40.93 46.9998H29.66C29.0018 46.9969 28.3496 47.1254 27.7418 47.3778C27.1339 47.6302 26.5825 48.0015 26.12 48.4698L24.01 50.5898L14.42 41.0098L18.37 37.0498C19.0181 36.3972 19.7895 35.8799 20.6393 35.528C21.489 35.1761 22.4002 34.9965 23.32 34.9998H27.35C27.7424 35 28.1308 35.0779 28.4929 35.2289C28.8551 35.3799 29.1837 35.6011 29.46 35.8798L29.7 36.1198C29.9795 36.3996 30.3116 36.6214 30.6771 36.7724C31.0427 36.9235 31.4345 37.0007 31.83 36.9998H40.99C41.4827 36.9974 41.9593 37.1752 42.33 37.4998C42.7106 37.8266 42.9477 38.2898 42.99 38.7898C43.0272 39.0992 42.9824 39.4131 42.86 39.6998C42.7661 39.9676 42.6122 40.2105 42.41 40.4098C42.2257 40.5965 42.0062 40.7448 41.7641 40.8461C41.5221 40.9473 41.2624 40.9996 41 40.9998H34.42C34.1548 40.9998 33.9004 41.1051 33.7129 41.2926C33.5254 41.4802 33.42 41.7345 33.42 41.9998C33.42 42.265 33.5254 42.5193 33.7129 42.7069C33.9004 42.8944 34.1548 42.9998 34.42 42.9998H41C41.5254 43.0002 42.0458 42.8971 42.5314 42.6963C43.017 42.4955 43.4582 42.2011 43.83 41.8298C44.1514 41.5032 44.4152 41.1245 44.61 40.7098L55.95 34.1698C56.2395 34.0035 56.5661 33.9127 56.8999 33.9057C57.2336 33.8987 57.5638 33.9758 57.86 34.1298C58.2066 34.2951 58.4932 34.5642 58.68 34.8998C58.8585 35.2026 58.9518 35.5482 58.95 35.8998C58.9527 36.2511 58.8614 36.5968 58.6856 36.901C58.5098 37.2051 58.2558 37.4568 57.95 37.6298Z" fill="#39373A"/>
<path d="M53 2C51.1411 2.00185 49.3286 2.57979 47.8117 3.65429C46.2949 4.72879 45.1484 6.24702 44.53 8H23C22.2051 8.00238 21.4434 8.31921 20.8813 8.88131C20.3192 9.4434 20.0024 10.2051 20 11V29C20.0024 29.7949 20.3192 30.5566 20.8813 31.1187C21.4434 31.6808 22.2051 31.9976 23 32H53C53.7949 31.9976 54.5566 31.6808 55.1187 31.1187C55.6808 30.5566 55.9976 29.7949 56 29V19.47C58.0014 18.764 59.6886 17.3728 60.763 15.5426C61.8374 13.7123 62.2297 11.561 61.8705 9.46931C61.5114 7.37762 60.4238 5.48043 58.8004 4.11344C57.177 2.74646 55.1223 1.99782 53 2ZM22 11C22 10.7348 22.1054 10.4804 22.2929 10.2929C22.4804 10.1054 22.7348 10 23 10H44.06C44.0198 10.3318 43.9998 10.6658 44 11C44.001 12.0232 44.1804 13.0384 44.53 14H22V11ZM22 16H45.52C46.0283 16.7562 46.6487 17.4306 47.36 18H22V16ZM54 29C54 29.2652 53.8946 29.5196 53.7071 29.7071C53.5196 29.8946 53.2652 30 53 30H23C22.7348 30 22.4804 29.8946 22.2929 29.7071C22.1054 29.5196 22 29.2652 22 29V20H53C53.3342 20.0002 53.6682 19.9802 54 19.94V29ZM53 18C51.6155 18 50.2622 17.5895 49.111 16.8203C47.9599 16.0511 47.0627 14.9579 46.5328 13.6788C46.003 12.3997 45.8644 10.9922 46.1345 9.63437C46.4046 8.2765 47.0713 7.02922 48.0503 6.05026C49.0292 5.07129 50.2765 4.4046 51.6344 4.13451C52.9922 3.86441 54.3997 4.00303 55.6788 4.53285C56.9579 5.06266 58.0511 5.95987 58.8203 7.11101C59.5895 8.26216 60 9.61553 60 11C59.9979 12.8559 59.2597 14.6351 57.9474 15.9474C56.6351 17.2597 54.8559 17.9979 53 18Z" fill="#FFCC29"/>
<path d="M50 10C51.1046 10 52 9.10457 52 8C52 6.89543 51.1046 6 50 6C48.8954 6 48 6.89543 48 8C48 9.10457 48.8954 10 50 10Z" fill="#FFCC29"/>
<path d="M56 16C57.1046 16 58 15.1046 58 14C58 12.8954 57.1046 12 56 12C54.8954 12 54 12.8954 54 14C54 15.1046 54.8954 16 56 16Z" fill="#FFCC29"/>
<path d="M48.293 15.7071C48.4806 15.8946 48.7349 15.9999 49 15.9999C49.2652 15.9999 49.5195 15.8946 49.707 15.7071L57.7071 7.70708C57.8026 7.61483 57.8787 7.50449 57.9312 7.38249C57.9836 7.26048 58.0112 7.12926 58.0123 6.99648C58.0135 6.8637 57.9882 6.73202 57.9379 6.60913C57.8876 6.48623 57.8133 6.37458 57.7195 6.28069C57.6256 6.18679 57.5139 6.11254 57.391 6.06226C57.2681 6.01198 57.1364 5.98668 57.0037 5.98783C56.8709 5.98898 56.7397 6.01657 56.6176 6.06898C56.4956 6.12139 56.3853 6.19757 56.2931 6.29308L48.293 14.2931C48.1056 14.4806 48.0002 14.7349 48.0002 15.0001C48.0002 15.2652 48.1056 15.5196 48.293 15.7071Z" fill="#FFCC29"/>
<path d="M37 24H27C26.7348 24 26.4804 24.1054 26.2929 24.2929C26.1054 24.4804 26 24.7348 26 25C26 25.2652 26.1054 25.5196 26.2929 25.7071C26.4804 25.8946 26.7348 26 27 26H37C37.2652 26 37.5196 25.8946 37.7071 25.7071C37.8946 25.5196 38 25.2652 38 25C38 24.7348 37.8946 24.4804 37.7071 24.2929C37.5196 24.1054 37.2652 24 37 24Z" fill="#FFCC29"/>
<path d="M49 26H43C42.7348 26 42.4804 25.8946 42.2929 25.7071C42.1054 25.5196 42 25.2652 42 25C42 24.7348 42.1054 24.4804 42.2929 24.2929C42.4804 24.1054 42.7348 24 43 24H49C49.2652 24 49.5196 24.1054 49.7071 24.2929C49.8946 24.4804 50 24.7348 50 25C50 25.2652 49.8946 25.5196 49.7071 25.7071C49.5196 25.8946 49.2652 26 49 26Z" fill="#FFCC29"/>
</svg>
