<svg width="55" height="55" viewBox="0 0 55 55" fill="none" xmlns="http://www.w3.org/2000/svg">
<path d="M47.2656 6.875H43.8281V5.15625C43.8281 4.24457 43.466 3.37023 42.8213 2.72557C42.1766 2.08091 41.3023 1.71875 40.3906 1.71875C39.4789 1.71875 38.6046 2.08091 37.9599 2.72557C37.3153 3.37023 36.9531 4.24457 36.9531 5.15625V6.875H30.0781V5.15625C30.0781 4.24457 29.716 3.37023 29.0713 2.72557C28.4266 2.08091 27.5523 1.71875 26.6406 1.71875C25.7289 1.71875 24.8546 2.08091 24.2099 2.72557C23.5653 3.37023 23.2031 4.24457 23.2031 5.15625V6.875H16.3281V5.15625C16.3281 4.24457 15.966 3.37023 15.3213 2.72557C14.6766 2.08091 13.8023 1.71875 12.8906 1.71875C11.9789 1.71875 11.1046 2.08091 10.4599 2.72557C9.81529 3.37023 9.45312 4.24457 9.45312 5.15625V6.875H6.01562C4.87644 6.87636 3.78431 7.32951 2.97878 8.13503C2.17326 8.94056 1.72011 10.0327 1.71875 11.1719V47.2656C1.72011 48.4048 2.17326 49.4969 2.97878 50.3025C3.78431 51.108 4.87644 51.5611 6.01562 51.5625H31.7969C32.0248 51.5625 32.2434 51.472 32.4045 51.3108C32.5657 51.1496 32.6562 50.931 32.6562 50.7031C32.6562 50.4752 32.5657 50.2566 32.4045 50.0955C32.2434 49.9343 32.0248 49.8438 31.7969 49.8438H6.01562C5.33186 49.8438 4.67611 49.5721 4.19262 49.0886C3.70912 48.6051 3.4375 47.9494 3.4375 47.2656V18.9062H49.8438V30.9375C49.8438 31.1654 49.9343 31.384 50.0955 31.5452C50.2566 31.7063 50.4752 31.7969 50.7031 31.7969C50.931 31.7969 51.1496 31.7063 51.3108 31.5452C51.472 31.384 51.5625 31.1654 51.5625 30.9375V11.1719C51.5611 10.0327 51.108 8.94056 50.3025 8.13503C49.4969 7.32951 48.4048 6.87636 47.2656 6.875ZM38.6719 5.15625C38.6719 4.70041 38.853 4.26324 39.1753 3.94091C39.4976 3.61858 39.9348 3.4375 40.3906 3.4375C40.8465 3.4375 41.2836 3.61858 41.606 3.94091C41.9283 4.26324 42.1094 4.70041 42.1094 5.15625V10.3125C42.1094 10.7683 41.9283 11.2055 41.606 11.5278C41.2836 11.8502 40.8465 12.0312 40.3906 12.0312C39.9348 12.0312 39.4976 11.8502 39.1753 11.5278C38.853 11.2055 38.6719 10.7683 38.6719 10.3125V5.15625ZM24.9219 5.15625C24.9219 4.70041 25.103 4.26324 25.4253 3.94091C25.7476 3.61858 26.1848 3.4375 26.6406 3.4375C27.0965 3.4375 27.5336 3.61858 27.856 3.94091C28.1783 4.26324 28.3594 4.70041 28.3594 5.15625V10.3125C28.3594 10.7683 28.1783 11.2055 27.856 11.5278C27.5336 11.8502 27.0965 12.0312 26.6406 12.0312C26.1848 12.0312 25.7476 11.8502 25.4253 11.5278C25.103 11.2055 24.9219 10.7683 24.9219 10.3125V5.15625ZM11.1719 5.15625C11.1719 4.70041 11.353 4.26324 11.6753 3.94091C11.9976 3.61858 12.4348 3.4375 12.8906 3.4375C13.3465 3.4375 13.7836 3.61858 14.106 3.94091C14.4283 4.26324 14.6094 4.70041 14.6094 5.15625V10.3125C14.6094 10.7683 14.4283 11.2055 14.106 11.5278C13.7836 11.8502 13.3465 12.0312 12.8906 12.0312C12.4348 12.0312 11.9976 11.8502 11.6753 11.5278C11.353 11.2055 11.1719 10.7683 11.1719 10.3125V5.15625ZM3.4375 17.1875V11.1719C3.4375 10.4881 3.70912 9.83236 4.19262 9.34887C4.67611 8.86537 5.33186 8.59375 6.01562 8.59375H9.45312V10.3125C9.45312 11.2242 9.81529 12.0985 10.4599 12.7432C11.1046 13.3878 11.9789 13.75 12.8906 13.75C13.8023 13.75 14.6766 13.3878 15.3213 12.7432C15.966 12.0985 16.3281 11.2242 16.3281 10.3125V8.59375H23.2031V10.3125C23.2031 11.2242 23.5653 12.0985 24.2099 12.7432C24.8546 13.3878 25.7289 13.75 26.6406 13.75C27.5523 13.75 28.4266 13.3878 29.0713 12.7432C29.716 12.0985 30.0781 11.2242 30.0781 10.3125V8.59375H36.9531V10.3125C36.9531 11.2242 37.3153 12.0985 37.9599 12.7432C38.6046 13.3878 39.4789 13.75 40.3906 13.75C41.3023 13.75 42.1766 13.3878 42.8213 12.7432C43.466 12.0985 43.8281 11.2242 43.8281 10.3125V8.59375H47.2656C47.9494 8.59375 48.6051 8.86537 49.0886 9.34887C49.5721 9.83236 49.8438 10.4881 49.8438 11.1719V17.1875H3.4375Z" fill="#39373A"/>
<path d="M52.4218 35.2342C52.6498 35.2342 52.8684 35.1437 53.0295 34.9825C53.1907 34.8213 53.2812 34.6028 53.2812 34.3748C53.2812 34.1469 53.1907 33.9283 53.0295 33.7672C52.8684 33.606 52.6498 33.5155 52.4218 33.5155H48.9843C48.7564 33.5155 48.5378 33.606 48.3767 33.7672C48.2155 33.9283 48.125 34.1469 48.125 34.3748V37.8123C48.125 38.0403 48.2155 38.2588 48.3767 38.42C48.5378 38.5812 48.7564 38.6717 48.9843 38.6717C49.2123 38.6717 49.4309 38.5812 49.592 38.42C49.7532 38.2588 49.8437 38.0403 49.8437 37.8123V36.6891C51.1348 38.5385 51.7204 40.7894 51.4944 43.0335C51.2683 45.2777 50.2454 47.3665 48.6114 48.9212C46.9773 50.4759 44.8402 51.3935 42.5876 51.5076C40.335 51.6218 38.116 50.9249 36.3332 49.5434C34.5503 48.1618 33.3215 46.1871 32.8697 43.9774C32.4179 41.7676 32.773 39.469 33.8705 37.4986C34.9681 35.5281 36.7354 34.0163 38.852 33.2371C40.9687 32.4579 43.2945 32.4631 45.4076 33.2516C45.6213 33.3314 45.8579 33.323 46.0654 33.2283C46.2729 33.1337 46.4343 32.9604 46.5141 32.7468C46.5938 32.5331 46.5855 32.2965 46.4908 32.089C46.3961 31.8815 46.2229 31.7201 46.0092 31.6403C43.4793 30.6928 40.6919 30.6928 38.162 31.6403C35.632 32.5878 33.5304 34.4187 32.2452 36.795C30.96 39.1712 30.5781 41.9323 31.17 44.5682C31.7619 47.2041 33.2877 49.5368 35.4654 51.1354C37.6432 52.734 40.3259 53.4906 43.018 53.2654C45.7102 53.0403 48.2299 51.8485 50.1118 49.9103C51.9938 47.9721 53.1108 45.4184 53.2566 42.7208C53.4024 40.0232 52.5671 37.364 50.9051 35.2342H52.4218Z" fill="#FFCC29"/>
<path d="M42.9687 39.6894V35.2344C42.9687 35.0065 42.8782 34.7879 42.717 34.6267C42.5559 34.4655 42.3373 34.375 42.1094 34.375C41.8815 34.375 41.6629 34.4655 41.5017 34.6267C41.3405 34.7879 41.25 35.0065 41.25 35.2344V39.6894C40.8906 39.8178 40.5641 40.0244 40.2942 40.2942C40.0244 40.5641 39.8178 40.8906 39.6894 41.25H36.9531C36.7252 41.25 36.5066 41.3405 36.3455 41.5017C36.1843 41.6629 36.0938 41.8815 36.0938 42.1094C36.0938 42.3373 36.1843 42.5559 36.3455 42.717C36.5066 42.8782 36.7252 42.9687 36.9531 42.9687H39.6894C39.8336 43.3791 40.0794 43.7461 40.404 44.0356C40.7286 44.3251 41.1213 44.5275 41.5453 44.624C41.9694 44.7205 42.411 44.7079 42.8289 44.5874C43.2468 44.4668 43.6272 44.2423 43.9348 43.9348C44.2423 43.6272 44.4668 43.2468 44.5874 42.8289C44.7079 42.411 44.7205 41.9694 44.624 41.5453C44.5275 41.1213 44.3251 40.7286 44.0356 40.404C43.7461 40.0794 43.3791 39.8336 42.9687 39.6894ZM42.1094 42.9687C41.9394 42.9687 41.7733 42.9183 41.6319 42.8239C41.4906 42.7295 41.3805 42.5953 41.3154 42.4382C41.2504 42.2812 41.2334 42.1084 41.2665 41.9417C41.2997 41.775 41.3815 41.6219 41.5017 41.5017C41.6219 41.3815 41.775 41.2997 41.9417 41.2665C42.1084 41.2334 42.2812 41.2504 42.4382 41.3154C42.5953 41.3805 42.7295 41.4906 42.8239 41.6319C42.9183 41.7733 42.9687 41.9394 42.9687 42.1094C42.9687 42.3373 42.8782 42.5559 42.717 42.717C42.5559 42.8782 42.3373 42.9687 42.1094 42.9687Z" fill="#FFCC29"/>
<path d="M23.2031 28.3594H19.7656C19.3098 28.3594 18.8726 28.1783 18.5503 27.856C18.228 27.5336 18.0469 27.0965 18.0469 26.6406V24.0625C18.0469 23.6067 18.228 23.1695 18.5503 22.8472C18.8726 22.5248 19.3098 22.3438 19.7656 22.3438H23.2031C23.659 22.3438 24.0961 22.5248 24.4185 22.8472C24.7408 23.1695 24.9219 23.6067 24.9219 24.0625V26.6406C24.9219 27.0965 24.7408 27.5336 24.4185 27.856C24.0961 28.1783 23.659 28.3594 23.2031 28.3594ZM19.7656 24.0625V26.6406H23.2031V24.0625H19.7656Z" fill="#FFCC29"/>
<path d="M33.5156 28.3594H30.0781C29.6223 28.3594 29.1851 28.1783 28.8628 27.856C28.5405 27.5336 28.3594 27.0965 28.3594 26.6406V24.0625C28.3594 23.6067 28.5405 23.1695 28.8628 22.8472C29.1851 22.5248 29.6223 22.3438 30.0781 22.3438H33.5156C33.9715 22.3438 34.4086 22.5248 34.731 22.8472C35.0533 23.1695 35.2344 23.6067 35.2344 24.0625V26.6406C35.2344 27.0965 35.0533 27.5336 34.731 27.856C34.4086 28.1783 33.9715 28.3594 33.5156 28.3594ZM30.0781 24.0625V26.6406H33.5156V24.0625H30.0781Z" fill="#FFCC29"/>
<path d="M12.8906 28.3594H9.45312C8.99728 28.3594 8.56011 28.1783 8.23779 27.856C7.91546 27.5336 7.73438 27.0965 7.73438 26.6406V24.0625C7.73438 23.6067 7.91546 23.1695 8.23779 22.8472C8.56011 22.5248 8.99728 22.3438 9.45312 22.3438H12.8906C13.3465 22.3438 13.7836 22.5248 14.106 22.8472C14.4283 23.1695 14.6094 23.6067 14.6094 24.0625V26.6406C14.6094 27.0965 14.4283 27.5336 14.106 27.856C13.7836 28.1783 13.3465 28.3594 12.8906 28.3594ZM9.45312 24.0625V26.6406H12.8906V24.0625H9.45312Z" fill="#FFCC29"/>
<path d="M43.8281 28.3594H40.3906C39.9348 28.3594 39.4976 28.1783 39.1753 27.856C38.853 27.5336 38.6719 27.0965 38.6719 26.6406V24.0625C38.6719 23.6067 38.853 23.1695 39.1753 22.8472C39.4976 22.5248 39.9348 22.3438 40.3906 22.3438H43.8281C44.284 22.3438 44.7211 22.5248 45.0435 22.8472C45.3658 23.1695 45.5469 23.6067 45.5469 24.0625V26.6406C45.5469 27.0965 45.3658 27.5336 45.0435 27.856C44.7211 28.1783 44.284 28.3594 43.8281 28.3594ZM40.3906 24.0625V26.6406H43.8281V24.0625H40.3906Z" fill="#FFCC29"/>
<path d="M23.2031 37.8125H19.7656C19.3098 37.8125 18.8726 37.6314 18.5503 37.3091C18.228 36.9868 18.0469 36.5496 18.0469 36.0938V33.5156C18.0469 33.0598 18.228 32.6226 18.5503 32.3003C18.8726 31.978 19.3098 31.7969 19.7656 31.7969H23.2031C23.659 31.7969 24.0961 31.978 24.4185 32.3003C24.7408 32.6226 24.9219 33.0598 24.9219 33.5156V36.0938C24.9219 36.5496 24.7408 36.9868 24.4185 37.3091C24.0961 37.6314 23.659 37.8125 23.2031 37.8125ZM19.7656 33.5156V36.0938H23.2031V33.5156H19.7656Z" fill="#FFCC29"/>
<path d="M30.0781 37.8125C29.6223 37.8125 29.1851 37.6314 28.8628 37.3091C28.5405 36.9868 28.3594 36.5496 28.3594 36.0938V33.5156C28.3594 33.0598 28.5405 32.6226 28.8628 32.3003C29.1851 31.978 29.6223 31.7969 30.0781 31.7969H32.6562C32.8842 31.7969 33.1028 31.8874 33.2639 32.0486C33.4251 32.2097 33.5156 32.4283 33.5156 32.6562C33.5156 32.8842 33.4251 33.1028 33.2639 33.2639C33.1028 33.4251 32.8842 33.5156 32.6562 33.5156H30.0781V36.0938C30.306 36.0938 30.5246 36.1843 30.6858 36.3455C30.847 36.5066 30.9375 36.7252 30.9375 36.9531C30.9375 37.181 30.847 37.3996 30.6858 37.5608C30.5246 37.722 30.306 37.8125 30.0781 37.8125Z" fill="#FFCC29"/>
<path d="M12.8906 37.8125H9.45312C8.99728 37.8125 8.56011 37.6314 8.23779 37.3091C7.91546 36.9868 7.73438 36.5496 7.73438 36.0938V33.5156C7.73438 33.0598 7.91546 32.6226 8.23779 32.3003C8.56011 31.978 8.99728 31.7969 9.45312 31.7969H12.8906C13.3465 31.7969 13.7836 31.978 14.106 32.3003C14.4283 32.6226 14.6094 33.0598 14.6094 33.5156V36.0938C14.6094 36.5496 14.4283 36.9868 14.106 37.3091C13.7836 37.6314 13.3465 37.8125 12.8906 37.8125ZM9.45312 33.5156V36.0938H12.8906V33.5156H9.45312Z" fill="#FFCC29"/>
<path d="M23.2031 47.2656H19.7656C19.3098 47.2656 18.8726 47.0845 18.5503 46.7622C18.228 46.4399 18.0469 46.0027 18.0469 45.5469V42.9688C18.0469 42.5129 18.228 42.0757 18.5503 41.7534C18.8726 41.4311 19.3098 41.25 19.7656 41.25H23.2031C23.659 41.25 24.0961 41.4311 24.4185 41.7534C24.7408 42.0757 24.9219 42.5129 24.9219 42.9688V45.5469C24.9219 46.0027 24.7408 46.4399 24.4185 46.7622C24.0961 47.0845 23.659 47.2656 23.2031 47.2656ZM19.7656 42.9688V45.5469H23.2031V42.9688H19.7656Z" fill="#FFCC29"/>
<path d="M12.8906 47.2656H9.45312C8.99728 47.2656 8.56011 47.0845 8.23779 46.7622C7.91546 46.4399 7.73438 46.0027 7.73438 45.5469V42.9688C7.73438 42.5129 7.91546 42.0757 8.23779 41.7534C8.56011 41.4311 8.99728 41.25 9.45312 41.25H12.8906C13.3465 41.25 13.7836 41.4311 14.106 41.7534C14.4283 42.0757 14.6094 42.5129 14.6094 42.9688V45.5469C14.6094 46.0027 14.4283 46.4399 14.106 46.7622C13.7836 47.0845 13.3465 47.2656 12.8906 47.2656ZM9.45312 42.9688V45.5469H12.8906V42.9688H9.45312Z" fill="#FFCC29"/>
</svg>
