<svg width="50" height="50" viewBox="0 0 50 50" fill="none" xmlns="http://www.w3.org/2000/svg">
<g clip-path="url(#clip0_142_393)">
<path d="M32.8125 32.8125C32.8125 31.9837 32.4833 31.1889 31.8972 30.6028C31.3112 30.0168 30.5163 29.6875 29.6875 29.6875H19.6328L20.3125 24.3125C20.3163 24.2814 20.3163 24.2499 20.3125 24.2188C20.3125 19.8907 17.25 18.75 15.625 18.75C15.4497 18.7436 15.2772 18.7963 15.1355 18.8998C14.9938 19.0032 14.891 19.1514 14.8438 19.3204L11.7188 30.1719C11.1938 31.207 10.3796 32.0673 9.375 32.6485V32.0313C9.375 31.8241 9.29269 31.6254 9.14618 31.4789C8.99966 31.3324 8.80095 31.25 8.59375 31.25H0.78125C0.57405 31.25 0.375336 31.3324 0.228823 31.4789C0.08231 31.6254 0 31.8241 0 32.0313L0 49.2188C0 49.426 0.08231 49.6247 0.228823 49.7712C0.375336 49.9177 0.57405 50 0.78125 50H8.59375C8.80095 50 8.99966 49.9177 9.14618 49.7712C9.29269 49.6247 9.375 49.426 9.375 49.2188V48.6954L13.8516 50C13.9214 50.012 13.9927 50.012 14.0625 50H27.3438C27.9356 49.9917 28.5129 49.8154 29.0085 49.4918C29.5041 49.1681 29.8976 48.7103 30.1431 48.1717C30.3887 47.6332 30.4762 47.0359 30.3955 46.4495C30.3149 45.8631 30.0693 45.3117 29.6875 44.8594C30.0745 44.6265 30.4064 44.3125 30.6603 43.9389C30.9143 43.5654 31.0842 43.1413 31.1585 42.6957C31.2327 42.2502 31.2095 41.7939 31.0905 41.3582C30.9714 40.9225 30.7593 40.5178 30.4688 40.1719C30.8557 39.939 31.1876 39.625 31.4416 39.2514C31.6955 38.8779 31.8655 38.4538 31.9397 38.0082C32.014 37.5627 31.9908 37.1064 31.8717 36.6707C31.7526 36.235 31.5405 35.8303 31.25 35.4844C31.72 35.2131 32.1113 34.824 32.3853 34.3555C32.6593 33.887 32.8065 33.3552 32.8125 32.8125ZM7.8125 48.4375H1.5625V32.8125H7.8125V48.4375ZM27.3438 48.4375H14.1719L9.375 47.0704V34.2813C11.7188 33.7422 13.1328 30.9532 13.1953 30.8204C13.2169 30.7749 13.2352 30.7279 13.25 30.6797L16.1953 20.3829C17.1094 20.586 18.7344 21.3438 18.75 24.1719L17.9688 30.375C17.9554 30.4841 17.9652 30.5947 17.9975 30.6997C18.0298 30.8047 18.0839 30.9017 18.1562 30.9844C18.2303 31.0687 18.3217 31.1361 18.4242 31.182C18.5266 31.2278 18.6378 31.251 18.75 31.25H29.6875C30.1019 31.25 30.4993 31.4147 30.7924 31.7077C31.0854 32.0007 31.25 32.3981 31.25 32.8125C31.25 33.2269 31.0854 33.6244 30.7924 33.9174C30.4993 34.2104 30.1019 34.375 29.6875 34.375H25.7812C25.574 34.375 25.3753 34.4574 25.2288 34.6039C25.0823 34.7504 25 34.9491 25 35.1563C25 35.3635 25.0823 35.5622 25.2288 35.7087C25.3753 35.8552 25.574 35.9375 25.7812 35.9375H28.9062C29.3207 35.9375 29.7181 36.1022 30.0111 36.3952C30.3041 36.6882 30.4688 37.0856 30.4688 37.5C30.4688 37.9144 30.3041 38.3119 30.0111 38.6049C29.7181 38.8979 29.3207 39.0625 28.9062 39.0625H25C24.7928 39.0625 24.5941 39.1448 24.4476 39.2914C24.3011 39.4379 24.2188 39.6366 24.2188 39.8438C24.2188 40.051 24.3011 40.2497 24.4476 40.3962C24.5941 40.5427 24.7928 40.625 25 40.625H28.125C28.5394 40.625 28.9368 40.7897 29.2299 41.0827C29.5229 41.3757 29.6875 41.7731 29.6875 42.1875C29.6875 42.6019 29.5229 42.9994 29.2299 43.2924C28.9368 43.5854 28.5394 43.75 28.125 43.75H24.2188C24.0115 43.75 23.8128 43.8323 23.6663 43.9789C23.5198 44.1254 23.4375 44.3241 23.4375 44.5313C23.4375 44.7385 23.5198 44.9372 23.6663 45.0837C23.8128 45.2302 24.0115 45.3125 24.2188 45.3125H27.3438C27.7582 45.3125 28.1556 45.4772 28.4486 45.7702C28.7416 46.0632 28.9062 46.4606 28.9062 46.875C28.9062 47.2894 28.7416 47.6869 28.4486 47.9799C28.1556 48.2729 27.7582 48.4375 27.3438 48.4375Z" fill="#39373A"/>
<path d="M10.1562 11.7187H10.9375V12.5C10.9375 12.7072 11.0198 12.9059 11.1663 13.0524C11.3128 13.1989 11.5115 13.2812 11.7188 13.2812C11.926 13.2812 12.1247 13.1989 12.2712 13.0524C12.4177 12.9059 12.5 12.7072 12.5 12.5V11.7187H13.2812C13.4885 11.7187 13.6872 11.6364 13.8337 11.4899C13.9802 11.3434 14.0625 11.1447 14.0625 10.9375C14.0625 10.7303 13.9802 10.5316 13.8337 10.3851C13.6872 10.2386 13.4885 10.1562 13.2812 10.1562H12.5V9.375C12.5 9.1678 12.4177 8.96909 12.2712 8.82257C12.1247 8.67606 11.926 8.59375 11.7188 8.59375C11.5115 8.59375 11.3128 8.67606 11.1663 8.82257C11.0198 8.96909 10.9375 9.1678 10.9375 9.375V10.1562H10.1562C9.94905 10.1562 9.75034 10.2386 9.60382 10.3851C9.45731 10.5316 9.375 10.7303 9.375 10.9375C9.375 11.1447 9.45731 11.3434 9.60382 11.4899C9.75034 11.6364 9.94905 11.7187 10.1562 11.7187Z" fill="#FFCC29"/>
<path d="M42.1875 39.0625H41.4062V38.2812C41.4062 38.074 41.3239 37.8753 41.1774 37.7288C41.0309 37.5823 40.8322 37.5 40.625 37.5C40.4178 37.5 40.2191 37.5823 40.0726 37.7288C39.9261 37.8753 39.8438 38.074 39.8438 38.2812V39.0625H39.0625C38.8553 39.0625 38.6566 39.1448 38.5101 39.2913C38.3636 39.4378 38.2812 39.6365 38.2812 39.8438C38.2812 40.051 38.3636 40.2497 38.5101 40.3962C38.6566 40.5427 38.8553 40.625 39.0625 40.625H39.8438V41.4062C39.8438 41.6135 39.9261 41.8122 40.0726 41.9587C40.2191 42.1052 40.4178 42.1875 40.625 42.1875C40.8322 42.1875 41.0309 42.1052 41.1774 41.9587C41.3239 41.8122 41.4062 41.6135 41.4062 41.4062V40.625H42.1875C42.3947 40.625 42.5934 40.5427 42.7399 40.3962C42.8864 40.2497 42.9688 40.051 42.9688 39.8438C42.9688 39.6365 42.8864 39.4378 42.7399 39.2913C42.5934 39.1448 42.3947 39.0625 42.1875 39.0625Z" fill="#FFCC29"/>
<path d="M32.8125 -1.0619e-05C28.2541 -1.0619e-05 23.8824 1.81081 20.6591 5.03409C17.4358 8.25737 15.625 12.6291 15.625 17.1875C15.625 17.3947 15.7073 17.5934 15.8538 17.7399C16.0003 17.8864 16.199 17.9687 16.4062 17.9687C16.6135 17.9687 16.8122 17.8864 16.9587 17.7399C17.1052 17.5934 17.1875 17.3947 17.1875 17.1875C17.1884 14.2248 18.0317 11.3234 19.6188 8.82171C21.206 6.32002 23.4718 4.32114 26.1518 3.05818C28.8318 1.79522 31.8157 1.32024 34.7554 1.68864C37.6951 2.05704 40.4695 3.25363 42.755 5.13886C45.0405 7.02409 46.7429 9.52026 47.6637 12.3362C48.5845 15.1522 48.6857 18.172 47.9555 21.0433C47.2253 23.9146 45.6939 26.5191 43.5397 28.5532C41.3856 30.5872 38.6975 31.9668 35.7891 32.5312C35.5819 32.5509 35.391 32.6521 35.2584 32.8125C35.1258 32.973 35.0623 33.1795 35.082 33.3867C35.1017 33.5939 35.2029 33.7848 35.3633 33.9174C35.5238 34.05 35.7303 34.1134 35.9375 34.0937H36.0859C40.3212 33.3194 44.1115 30.9837 46.7072 27.5487C49.3029 24.1137 50.5149 19.8296 50.1034 15.5439C49.692 11.2581 47.687 7.2829 44.4851 4.40455C41.2832 1.5262 37.1177 -0.0456316 32.8125 -1.0619e-05Z" fill="#39373A"/>
<path d="M39.8438 20.3125C39.8438 18.6549 39.1853 17.0652 38.0132 15.8931C36.8411 14.721 35.2514 14.0625 33.5938 14.0625H32.0312C31.6168 14.0625 31.2194 13.8979 30.9264 13.6049C30.6334 13.3118 30.4688 12.9144 30.4688 12.5C30.4688 12.0856 30.6334 11.6882 30.9264 11.3951C31.2194 11.1021 31.6168 10.9375 32.0312 10.9375H37.5C38.1216 10.9375 38.7177 10.6906 39.1573 10.251C39.5968 9.81149 39.8438 9.21535 39.8438 8.59375C39.8438 7.97215 39.5968 7.37601 39.1573 6.93647C38.7177 6.49693 38.1216 6.25 37.5 6.25H35.1562V3.90625C35.1562 3.69905 35.0739 3.50034 34.9274 3.35382C34.7809 3.20731 34.5822 3.125 34.375 3.125H31.25C31.0428 3.125 30.8441 3.20731 30.6976 3.35382C30.5511 3.50034 30.4688 3.69905 30.4688 3.90625V6.45313C29 6.83698 27.7212 7.74229 26.871 9.00001C26.0209 10.2577 25.6576 11.7819 25.8489 13.2878C26.0403 14.7938 26.7732 16.1787 27.9109 17.1838C29.0486 18.189 30.5132 18.7457 32.0312 18.75H33.5938C34.0082 18.75 34.4056 18.9146 34.6986 19.2076C34.9916 19.5007 35.1562 19.8981 35.1562 20.3125C35.1562 20.7269 34.9916 21.1243 34.6986 21.4174C34.4056 21.7104 34.0082 21.875 33.5938 21.875H28.125C27.5034 21.875 26.9073 22.1219 26.4677 22.5615C26.0282 23.001 25.7812 23.5971 25.7812 24.2188C25.7812 24.8404 26.0282 25.4365 26.4677 25.876C26.9073 26.3156 27.5034 26.5625 28.125 26.5625H30.4688V28.9062C30.4688 29.1135 30.5511 29.3122 30.6976 29.4587C30.8441 29.6052 31.0428 29.6875 31.25 29.6875H34.375C34.5822 29.6875 34.7809 29.6052 34.9274 29.4587C35.0739 29.3122 35.1562 29.1135 35.1562 28.9062V26.3594C36.4971 26.0132 37.685 25.2315 38.5334 24.137C39.3818 23.0425 39.8427 21.6973 39.8438 20.3125ZM34.2656 24.9453C34.0779 24.9718 33.9062 25.0657 33.7826 25.2095C33.659 25.3532 33.5919 25.537 33.5938 25.7266V28.125H32.0312V25.7812C32.0312 25.574 31.9489 25.3753 31.8024 25.2288C31.6559 25.0823 31.4572 25 31.25 25H28.125C27.9178 25 27.7191 24.9177 27.5726 24.7712C27.4261 24.6247 27.3438 24.426 27.3438 24.2188C27.3438 24.0115 27.4261 23.8128 27.5726 23.6663C27.7191 23.5198 27.9178 23.4375 28.125 23.4375H33.5938C34.4226 23.4375 35.2174 23.1083 35.8035 22.5222C36.3895 21.9362 36.7188 21.1413 36.7188 20.3125C36.7188 19.4837 36.3895 18.6888 35.8035 18.1028C35.2174 17.5167 34.4226 17.1875 33.5938 17.1875H32.0312C30.8535 17.1772 29.7228 16.724 28.864 15.9179C28.0053 15.1118 27.4815 14.012 27.3968 12.8372C27.3121 11.6625 27.6728 10.4989 28.407 9.57796C29.1413 8.65704 30.1953 8.04628 31.3594 7.86719C31.5471 7.84065 31.7188 7.74677 31.8424 7.60303C31.966 7.45929 32.0331 7.27551 32.0312 7.08594V4.6875H33.5938V7.03125C33.5938 7.23845 33.6761 7.43716 33.8226 7.58368C33.9691 7.73019 34.1678 7.8125 34.375 7.8125H37.5C37.7072 7.8125 37.9059 7.89481 38.0524 8.04132C38.1989 8.18784 38.2812 8.38655 38.2812 8.59375C38.2812 8.80095 38.1989 8.99966 38.0524 9.14618C37.9059 9.29269 37.7072 9.375 37.5 9.375H32.0312C31.2024 9.375 30.4076 9.70424 29.8215 10.2903C29.2355 10.8763 28.9062 11.6712 28.9062 12.5C28.9062 13.3288 29.2355 14.1237 29.8215 14.7097C30.4076 15.2958 31.2024 15.625 32.0312 15.625H33.5938C34.7715 15.6353 35.9022 16.0885 36.761 16.8946C37.6197 17.7007 38.1435 18.8005 38.2282 19.9753C38.3129 21.15 37.9522 22.3136 37.218 23.2345C36.4837 24.1555 35.4297 24.7662 34.2656 24.9453Z" fill="#FFCC29"/>
</g>
<defs>
<clipPath id="clip0_142_393">
<rect width="50" height="50" fill="white"/>
</clipPath>
</defs>
</svg>
