<svg width="47" height="47" viewBox="0 0 47 47" fill="none" xmlns="http://www.w3.org/2000/svg">
<g clip-path="url(#clip0_142_435)">
<path d="M22.7068 17.921C23.0131 18.2118 23.5222 18.153 23.755 17.802L28.3373 10.8864C28.5474 10.5694 28.4606 10.1419 28.1436 9.93182C27.827 9.72204 27.3996 9.80882 27.1895 10.1254L23.06 16.3576L20.7655 14.1789C20.4897 13.9171 20.054 13.9286 19.7919 14.2043C19.5302 14.4801 19.5416 14.9157 19.8174 15.1775C19.817 15.1775 22.7043 17.9189 22.7068 17.921Z" fill="#FFCC29"/>
<path d="M23.1766 28.4219C23.3082 28.4821 23.4538 28.5141 23.5986 28.5141H23.6044C23.7517 28.5133 23.8995 28.4796 24.0314 28.4165C34.5006 23.4376 36.2749 12.6952 36.5689 9.52142C36.6363 8.79673 36.2282 8.12188 35.5537 7.84218C33.4697 6.97692 32.0529 5.04202 31.8564 2.79263C31.7958 2.10021 31.2042 1.56055 30.5071 1.56055H30.4988L16.3944 1.64338C15.6833 1.64732 15.1056 2.18771 15.0511 2.90021C14.8776 5.15031 13.4816 7.0992 11.4079 7.98633C10.7403 8.27176 10.3422 8.9502 10.4182 9.67453C10.7496 12.8448 12.6497 23.566 23.1766 28.4219ZM11.9494 9.25213C14.4921 8.16491 16.205 5.77783 16.4227 3.01997L30.4866 2.9375C30.7366 5.68926 32.4739 8.05446 35.0259 9.11371C35.1399 9.1614 35.2091 9.274 35.198 9.39448C34.9219 12.3689 33.2699 22.3981 23.5961 27.098C13.8667 22.5125 12.0986 12.5027 11.7873 9.53146C11.7748 9.41134 11.84 9.2991 11.9494 9.25213Z" fill="#FFCC29"/>
<path d="M13.6684 13.069C13.7516 13.3752 14.14 13.6556 14.5136 13.5527C14.8801 13.4516 15.097 13.0747 14.9973 12.7079C14.822 12.0617 14.6746 11.4066 14.5588 10.7575C16.4292 9.53872 17.8172 7.71964 18.4982 5.59504L28.4409 5.53659C29.1466 7.65258 30.5558 9.45589 32.4405 10.6525C32.3326 11.3033 32.1928 11.9606 32.0246 12.6093C31.9292 12.9775 32.1504 13.3533 32.5184 13.4487C32.887 13.5441 33.2624 13.3228 33.3578 12.9546C33.555 12.1929 33.7157 11.4198 33.8347 10.6568C33.9014 10.2304 33.7063 9.81124 33.3384 9.58892C31.5828 8.5286 30.2851 6.86514 29.6845 4.90513C29.5493 4.46443 29.1337 4.1582 28.6726 4.1582H28.6661L18.2565 4.21916C17.7925 4.22203 17.3773 4.53436 17.2471 4.97828C16.6698 6.9451 15.3914 8.62362 13.6484 9.70474C13.283 9.93101 13.0933 10.3523 13.1646 10.7783C13.293 11.5396 13.4623 12.3102 13.6684 13.069Z" fill="#FFCC29"/>
<path d="M31.9661 15.1101C31.6147 14.9645 31.2124 15.1323 31.0672 15.4837C29.4761 19.3399 26.9575 22.2717 23.5789 24.2012C20.1742 22.309 17.6189 19.402 15.9831 15.558C15.8339 15.2083 15.4294 15.0456 15.0798 15.1944C14.7298 15.3432 14.567 15.7477 14.7158 16.0973C16.5012 20.292 19.3139 23.4543 23.0758 25.4957C23.2343 25.5821 23.4079 25.6248 23.581 25.6248C23.7585 25.6248 23.9357 25.58 24.097 25.49C27.8306 23.407 30.6039 20.217 32.3401 16.0087C32.4853 15.6573 32.3179 15.255 31.9661 15.1101Z" fill="#FFCC29"/>
<path d="M4.41735 36.7896C3.07446 36.7896 1.98151 37.8821 1.98151 39.2254C1.98151 40.5686 3.07446 41.6612 4.41735 41.6612C5.7606 41.6612 6.85355 40.5686 6.85355 39.2254C6.85355 37.8821 5.76095 36.7896 4.41735 36.7896ZM4.41735 40.2843C3.83358 40.2843 3.35846 39.8095 3.35846 39.2254C3.35846 38.6416 3.83358 38.1665 4.41735 38.1665C5.00148 38.1665 5.4766 38.6416 5.4766 39.2254C5.4766 39.8095 5.00148 40.2843 4.41735 40.2843Z" fill="#39373A"/>
<path d="M46.5063 30.0493C45.6238 28.7526 43.847 28.4091 42.5457 29.2833L33.5453 35.3072L31.624 35.1992L31.5749 34.7073C31.3834 32.7806 29.9107 31.2455 27.9938 30.9744C27.9816 30.9726 27.9697 30.9712 27.9575 30.9701L18.2593 30.1203C17.9312 30.069 16.881 29.7674 13.9951 28.1122C12.4951 27.252 10.8051 26.7665 9.08825 26.7005V24.8993C9.08825 23.9953 8.35316 23.2603 7.44918 23.2603H1.63908C0.735451 23.2603 0 23.9957 0 24.8993V42.6387C0 43.5423 0.735451 44.2778 1.63908 44.2778H7.44918C8.3528 44.2778 9.08825 43.5423 9.08825 42.6387V42.15L17.5658 45.3604C17.5845 45.3675 18.273 45.625 19.5388 45.5056C19.5423 45.5052 33.6249 43.4749 33.6249 43.4749C33.6285 43.4746 33.6317 43.4739 33.6353 43.4731C34.8387 43.2813 35.9736 42.7725 36.9178 42.0026C36.9264 41.9954 36.9346 41.9883 36.9429 41.9811L46.0405 33.7986C47.1126 32.8466 47.3131 31.2348 46.5063 30.0493ZM45.1228 32.772L36.035 40.9459C35.2826 41.5558 34.3797 41.9592 33.423 42.1127L19.3473 44.1419C19.344 44.1423 19.3394 44.143 19.3351 44.1437C19.3329 44.144 19.3304 44.1444 19.3283 44.1448C18.9073 44.2111 18.4688 44.1831 18.0245 44.0616L9.08825 40.6776V32.815C9.08825 32.4346 8.77987 32.1265 8.39978 32.1265C8.01932 32.1265 7.7113 32.4346 7.7113 32.815V42.6387C7.7113 42.7832 7.59369 42.9008 7.44918 42.9008H1.63908C1.49457 42.9008 1.37695 42.7832 1.37695 42.6387V24.8993C1.37695 24.7548 1.49457 24.6372 1.63908 24.6372H7.44918C7.59369 24.6372 7.7113 24.7548 7.7113 24.8993V29.705C7.7113 30.0855 8.01968 30.3935 8.39978 30.3935C8.78023 30.3935 9.08825 30.0851 9.08825 29.705V28.0789C10.5653 28.1441 12.0182 28.5658 13.3098 29.307C16.7906 31.3032 17.7627 31.4409 18.0822 31.4861C18.0944 31.4879 18.1062 31.489 18.1184 31.4904L27.8177 32.3403C29.0964 32.5292 30.0768 33.5562 30.2048 34.8435L30.2413 35.2103L17.256 36.0121C17.2471 36.0114 17.2381 36.0107 17.2302 36.01C16.8092 35.972 16.4291 35.773 16.1591 35.4495C15.9156 35.1573 15.4814 35.1178 15.1895 35.3617C14.8973 35.6051 14.8578 36.0394 15.1017 36.3313C15.6069 36.9373 16.3198 37.2998 17.1076 37.3816C17.5329 37.426 30.9987 36.5432 30.9987 36.5432L33.6981 36.6949C33.8472 36.7035 33.9953 36.6626 34.1194 36.5794L43.3127 30.4269C43.9879 29.9733 44.9099 30.1511 45.3678 30.8238C45.7862 31.4391 45.6822 32.2754 45.1228 32.772Z" fill="#39373A"/>
</g>
<defs>
<clipPath id="clip0_142_435">
<rect width="47" height="47" fill="white"/>
</clipPath>
</defs>
</svg>
